<?xml version="1.0" encoding="UTF-8" standalone="no"?>
<!-- License: PD. Made by theforgesmith: https://icons.theforgesmith.com -->

<svg
   width="800px"
   height="800px"
   viewBox="0 0 64 64"
   stroke-width="3"
   stroke="#000000"
   fill="none"
   version="1.1"
   id="svg1"
   sodipodi:docname="firescript-logo.svg"
   inkscape:version="1.4.2 (ebf0e940d0, 2025-05-08)"
   xmlns:inkscape="http://www.inkscape.org/namespaces/inkscape"
   xmlns:sodipodi="http://sodipodi.sourceforge.net/DTD/sodipodi-0.dtd"
   xmlns:xlink="http://www.w3.org/1999/xlink"
   xmlns="http://www.w3.org/2000/svg"
   xmlns:svg="http://www.w3.org/2000/svg">
  <defs
     id="defs1">
    <linearGradient
       id="linearGradient11"
       inkscape:collect="always">
      <stop
         style="stop-color:#c41919;stop-opacity:1;"
         offset="0"
         id="stop12" />
      <stop
         style="stop-color:#dd7b20;stop-opacity:1;"
         offset="1"
         id="stop13" />
    </linearGradient>
    <linearGradient
       inkscape:collect="always"
       xlink:href="#linearGradient11"
       id="linearGradient13"
       x1="35.941307"
       y1="49.997887"
       x2="28.345104"
       y2="14.260566"
       gradientUnits="userSpaceOnUse" />
  </defs>
  <sodipodi:namedview
     id="namedview1"
     pagecolor="#ffffff"
     bordercolor="#000000"
     borderopacity="0.25"
     inkscape:showpageshadow="2"
     inkscape:pageopacity="0.0"
     inkscape:pagecheckerboard="0"
     inkscape:deskcolor="#d1d1d1"
     inkscape:zoom="0.98"
     inkscape:cx="400"
     inkscape:cy="400"
     inkscape:window-width="1920"
     inkscape:window-height="995"
     inkscape:window-x="0"
     inkscape:window-y="0"
     inkscape:window-maximized="1"
     inkscape:current-layer="svg1" />
  <path
     d="M37.34,7.36a.12.12,0,0,1,.18.13c-.47,1.86-2.78,12.63,5.57,19.62,8.16,6.84,8.41,17.13,2.33,24-7.27,8.23-19.84,6.78-25.25,1.37C16.36,48.69,9.44,36.33,21.29,26a.1.1,0,0,1,.16,0c.29,1.23,2.3,9,7.66,10,.25,0,.37-.11.25-.34C27.78,32.6,20.66,17,37.34,7.36Z"
     stroke-linecap="round"
     id="path1"
     style="opacity:1;stroke-width:1.6;stroke-dasharray:none;fill-opacity:1;fill:url(#linearGradient13)" />
</svg>
